<?xml version="1.0" encoding="utf-8"?>
<!-- Generator: Adobe Illustrator 23.0.3, SVG Export Plug-In . SVG Version: 6.00 Build 0)  -->
<svg version="1.1" id="Icons" xmlns="http://www.w3.org/2000/svg" xmlns:xlink="http://www.w3.org/1999/xlink" x="0px" y="0px"
	 viewBox="0 0 32 32" style="enable-background:new 0 0 32 32;" xml:space="preserve">
<style type="text/css">
	.st0{fill:none;stroke:#000000;stroke-width:2;stroke-linecap:round;stroke-linejoin:round;stroke-miterlimit:10;}
</style>
<circle class="st0" cx="16" cy="6" r="2"/>
<line class="st0" x1="16" y1="21" x2="16" y2="27"/>
<line class="st0" x1="16" y1="12" x2="16" y2="21"/>
<path class="st0" d="M22,5.5c0,0.2,0,0.3,0,0.5c0,3.3-2.7,6-6,6s-6-2.7-6-6c0-0.2,0-0.3,0-0.5L3,12l13,4l13-4L22,5.5z"/>
<path class="st0" d="M10.7,19.7c-0.5-0.4-0.7-0.8-0.7-1.2c0-1.4,2.7-2.5,6-2.5s6,1.1,6,2.5S19.3,21,16,21"/>
<path class="st0" d="M13.3,24.5C12.5,24.1,12,23.6,12,23c0-1.1,1.8-2,4-2"/>
<path class="st0" d="M16,25c1.7,0,3,0.9,3,2s-1.3,2-3,2s-3-0.9-3-2"/>
</svg>
